<svg id="visual" viewBox="0 0 900 600" width="900" height="600" xmlns="http://www.w3.org/2000/svg" xmlns:xlink="http://www.w3.org/1999/xlink" version="1.1"><rect x="0" y="0" width="900" height="600" fill="#FFF"></rect><defs><linearGradient id="grad1_0" x1="33.3%" y1="0%" x2="100%" y2="100%"><stop offset="20%" stop-color="#ffffff" stop-opacity="1"></stop><stop offset="80%" stop-color="#ffffff" stop-opacity="1"></stop></linearGradient></defs><defs><linearGradient id="grad2_0" x1="0%" y1="0%" x2="66.7%" y2="100%"><stop offset="20%" stop-color="#ffffff" stop-opacity="1"></stop><stop offset="80%" stop-color="#ffffff" stop-opacity="1"></stop></linearGradient></defs><g transform="translate(900, 0)"><path d="M0 270.4C-35.5 266.6 -70.9 262.7 -103.5 249.8C-136 236.9 -165.7 215 -188.8 188.8C-211.9 162.6 -228.6 132.1 -241.1 99.9C-253.7 67.7 -262 33.8 -270.4 0L0 0Z" fill="#073f33"></path></g><g transform="translate(0, 600)"><path d="M0 -270.4C33.2 -261.6 66.5 -252.7 99.9 -241.1C133.3 -229.5 166.9 -215.2 191.2 -191.2C215.5 -167.3 230.4 -133.7 242.1 -100.3C253.7 -66.8 262.1 -33.4 270.4 0L0 0Z" fill="#073f33"></path></g></svg>