<svg id="visual" viewBox="0 0 900 600" width="900" height="600" xmlns="http://www.w3.org/2000/svg" xmlns:xlink="http://www.w3.org/1999/xlink" version="1.1"><rect x="0" y="0" width="900" height="600" fill="#fcfcfc"></rect><path d="M0 308L16.7 326.2C33.3 344.3 66.7 380.7 100 404C133.3 427.3 166.7 437.7 200 441C233.3 444.3 266.7 440.7 300 432.2C333.3 423.7 366.7 410.3 400 393.2C433.3 376 466.7 355 500 352.3C533.3 349.7 566.7 365.3 600 382.7C633.3 400 666.7 419 700 427.2C733.3 435.3 766.7 432.7 800 419C833.3 405.3 866.7 380.7 883.3 368.3L900 356L900 601L883.3 601C866.7 601 833.3 601 800 601C766.7 601 733.3 601 700 601C666.7 601 633.3 601 600 601C566.7 601 533.3 601 500 601C466.7 601 433.3 601 400 601C366.7 601 333.3 601 300 601C266.7 601 233.3 601 200 601C166.7 601 133.3 601 100 601C66.7 601 33.3 601 16.7 601L0 601Z" fill="#073f33"></path><path d="M0 390L16.7 398.2C33.3 406.3 66.7 422.7 100 429.2C133.3 435.7 166.7 432.3 200 440C233.3 447.7 266.7 466.3 300 472.7C333.3 479 366.7 473 400 465C433.3 457 466.7 447 500 434.5C533.3 422 566.7 407 600 395.8C633.3 384.7 666.7 377.3 700 382C733.3 386.7 766.7 403.3 800 407C833.3 410.7 866.7 401.3 883.3 396.7L900 392L900 601L883.3 601C866.7 601 833.3 601 800 601C766.7 601 733.3 601 700 601C666.7 601 633.3 601 600 601C566.7 601 533.3 601 500 601C466.7 601 433.3 601 400 601C366.7 601 333.3 601 300 601C266.7 601 233.3 601 200 601C166.7 601 133.3 601 100 601C66.7 601 33.3 601 16.7 601L0 601Z" fill="#052f27"></path><path d="M0 510L16.7 506.8C33.3 503.7 66.7 497.3 100 486.5C133.3 475.7 166.7 460.3 200 447.2C233.3 434 266.7 423 300 420.5C333.3 418 366.7 424 400 431C433.3 438 466.7 446 500 452.8C533.3 459.7 566.7 465.3 600 473.8C633.3 482.3 666.7 493.7 700 482.3C733.3 471 766.7 437 800 433.7C833.3 430.3 866.7 457.7 883.3 471.3L900 485L900 601L883.3 601C866.7 601 833.3 601 800 601C766.7 601 733.3 601 700 601C666.7 601 633.3 601 600 601C566.7 601 533.3 601 500 601C466.7 601 433.3 601 400 601C366.7 601 333.3 601 300 601C266.7 601 233.3 601 200 601C166.7 601 133.3 601 100 601C66.7 601 33.3 601 16.7 601L0 601Z" fill="#04251f"></path><path d="M0 559L16.7 556.8C33.3 554.7 66.7 550.3 100 550.7C133.3 551 166.7 556 200 558.7C233.3 561.3 266.7 561.7 300 560.3C333.3 559 366.7 556 400 538C433.3 520 466.7 487 500 483.8C533.3 480.7 566.7 507.3 600 512.8C633.3 518.3 666.7 502.7 700 504.3C733.3 506 766.7 525 800 535.8C833.3 546.7 866.7 549.3 883.3 550.7L900 552L900 601L883.3 601C866.7 601 833.3 601 800 601C766.7 601 733.3 601 700 601C666.7 601 633.3 601 600 601C566.7 601 533.3 601 500 601C466.7 601 433.3 601 400 601C366.7 601 333.3 601 300 601C266.7 601 233.3 601 200 601C166.7 601 133.3 601 100 601C66.7 601 33.3 601 16.7 601L0 601Z" fill="#052f27"></path><path d="M0 505L16.7 505.8C33.3 506.7 66.7 508.3 100 510.2C133.3 512 166.7 514 200 513.8C233.3 513.7 266.7 511.3 300 518.2C333.3 525 366.7 541 400 553.2C433.3 565.3 466.7 573.7 500 567.8C533.3 562 566.7 542 600 539.7C633.3 537.3 666.7 552.7 700 552.7C733.3 552.7 766.7 537.3 800 539.5C833.3 541.7 866.7 561.3 883.3 571.2L900 581L900 601L883.3 601C866.7 601 833.3 601 800 601C766.7 601 733.3 601 700 601C666.7 601 633.3 601 600 601C566.7 601 533.3 601 500 601C466.7 601 433.3 601 400 601C366.7 601 333.3 601 300 601C266.7 601 233.3 601 200 601C166.7 601 133.3 601 100 601C66.7 601 33.3 601 16.7 601L0 601Z" fill="#073f33"></path></svg>